<svg width="60" height="60" viewBox="0 0 60 60" fill="none" xmlns="http://www.w3.org/2000/svg">
<path d="M17.1396 28.2506C15.3028 28.2568 13.4986 28.7356 11.9005 29.6411C14.1505 23.8172 17.8822 18.6818 22.7263 14.7431C23.0035 14.5148 23.233 14.2342 23.4017 13.9173C23.5704 13.6004 23.675 13.2533 23.7096 12.8959C23.7442 12.5385 23.7081 12.1778 23.6033 11.8344C23.4985 11.491 23.327 11.1716 23.0988 10.8945C22.8705 10.6173 22.5899 10.3878 22.273 10.2191C21.956 10.0504 21.609 9.94574 21.2516 9.91115C20.8942 9.87657 20.5335 9.91271 20.1901 10.0175C19.8467 10.1223 19.5273 10.2938 19.2501 10.522C9.31817 18.5917 4.89844 29.7652 4.89844 36.6928C4.91555 39.1422 5.6455 41.5337 6.99915 43.5752C8.3528 45.6167 10.2716 47.2199 12.5212 48.189C13.9772 48.8943 15.5715 49.2675 17.1893 49.2815C18.6132 49.3507 20.0363 49.1301 21.3723 48.6328C22.7084 48.1356 23.9295 47.3722 24.9618 46.389C25.994 45.4057 26.8158 44.223 27.3773 42.9127C27.9387 41.6024 28.2283 40.1916 28.2283 38.7661C28.2283 37.3405 27.9387 35.9297 27.3773 34.6194C26.8158 33.3091 25.994 32.1264 24.9618 31.1431C23.9295 30.1599 22.7084 29.3965 21.3723 28.8993C20.0363 28.4021 18.6132 28.1814 17.1893 28.2506H17.1396Z" fill="#CC0000"/>
<path d="M44.7998 28.2513C42.9627 28.2553 41.1579 28.7343 39.5606 29.6418C41.8097 23.8241 45.5316 18.6904 50.3617 14.7439C50.664 14.5259 50.9185 14.2485 51.1096 13.9285C51.3006 13.6085 51.4242 13.2529 51.4727 12.8834C51.5211 12.5139 51.4935 12.1383 51.3914 11.7799C51.2893 11.4215 51.1149 11.0878 50.879 10.7993C50.6431 10.5108 50.3507 10.2736 50.0197 10.1023C49.6887 9.93109 49.3262 9.82938 48.9544 9.80348C48.5826 9.77758 48.2095 9.82803 47.858 9.95173C47.5064 10.0754 47.1839 10.2698 46.9103 10.5228C36.9783 18.5925 32.5586 29.766 32.5586 36.6935C32.5704 39.1152 33.279 41.4824 34.5999 43.5121C35.9208 45.5419 37.7981 47.1486 40.0076 48.1401C41.5004 48.866 43.1398 49.2398 44.7998 49.2326C46.2236 49.3018 47.6468 49.0811 48.9828 48.5839C50.3189 48.0867 51.54 47.3233 52.5723 46.3401C53.6045 45.3568 54.4263 44.1741 54.9877 42.8638C55.5492 41.5535 55.8388 40.1427 55.8388 38.7171C55.8388 37.2916 55.5492 35.8808 54.9877 34.5705C54.4263 33.2602 53.6045 32.0775 52.5723 31.0942C51.54 30.111 50.3189 29.3476 48.9828 28.8504C47.6468 28.3532 46.2236 28.1325 44.7998 28.2017V28.2513Z" fill="#CC0000"/>
</svg>
