<svg width="18" height="19" viewBox="0 0 18 19" fill="none" xmlns="http://www.w3.org/2000/svg">
<path d="M15.0178 18.3367H3.41358C1.81004 18.3367 0.5 17.0266 0.5 15.4231V3.81886C0.5 2.21531 1.81004 0.905273 3.41358 0.905273H15.0178C16.6213 0.905273 17.9314 2.21531 17.9314 3.81886V15.4231C17.9314 17.0338 16.6285 18.3367 15.0178 18.3367Z" fill="white"/>
<path d="M9.21868 14.0987C8.02318 14.0987 6.89927 13.6334 6.05454 12.7887C5.20982 11.944 4.74451 10.8201 4.74451 9.62456C4.74451 8.42906 5.20982 7.30515 6.05454 6.46043C6.89927 5.6157 8.02318 5.15039 9.21868 5.15039C10.4142 5.15039 11.5381 5.6157 12.3828 6.46043C13.2275 7.30515 13.6929 8.42906 13.6929 9.62456C13.6929 10.8201 13.2275 11.944 12.3828 12.7887C11.5309 13.6334 10.4142 14.0987 9.21868 14.0987ZM9.21868 6.10249C7.27868 6.10249 5.69661 7.6774 5.69661 9.62456C5.69661 11.5646 7.27152 13.1466 9.21868 13.1466C11.1587 13.1466 12.7407 11.5717 12.7407 9.62456C12.7336 7.68456 11.1587 6.10249 9.21868 6.10249Z" fill="black"/>
<path d="M14.5651 5.00328C15.0396 5.00328 15.4242 4.61867 15.4242 4.14422C15.4242 3.66977 15.0396 3.28516 14.5651 3.28516C14.0907 3.28516 13.7061 3.66977 13.7061 4.14422C13.7061 4.61867 14.0907 5.00328 14.5651 5.00328Z" fill="black"/>
</svg>
