<svg width="22" height="21" viewBox="0 0 22 21" fill="none" xmlns="http://www.w3.org/2000/svg">
<path d="M5.52337 6.6875H1.27393V20.2387H5.52337V6.6875Z" fill="white"/>
<path d="M17.0191 6.39363C16.8624 6.37404 16.6959 6.36425 16.5295 6.35446C14.1502 6.25655 12.8088 7.6665 12.3388 8.27356C12.2115 8.44002 12.1528 8.53793 12.1528 8.53793V6.72653H8.08936V20.2778H12.1528H12.3388C12.3388 18.8972 12.3388 17.5264 12.3388 16.1458C12.3388 15.4017 12.3388 14.6575 12.3388 13.9134C12.3388 12.993 12.2703 12.0139 12.7305 11.1718C13.1221 10.4668 13.8271 10.1143 14.6202 10.1143C16.9701 10.1143 17.0191 12.2391 17.0191 12.4349C17.0191 12.4447 17.0191 12.4545 17.0191 12.4545V20.3365H21.2685V11.4949C21.2685 8.46939 19.7313 6.68737 17.0191 6.39363Z" fill="white"/>
<path d="M3.39881 4.93484C4.76153 4.93484 5.86624 3.83014 5.86624 2.46742C5.86624 1.1047 4.76153 0 3.39881 0C2.03609 0 0.931396 1.1047 0.931396 2.46742C0.931396 3.83014 2.03609 4.93484 3.39881 4.93484Z" fill="white"/>
</svg>
